<?xml version="1.0" encoding="utf-8"?>
<!-- Generator: Adobe Illustrator 21.1.0, SVG Export Plug-In . SVG Version: 6.00 Build 0)  -->
<svg version="1.1" id="Layer_1" xmlns="http://www.w3.org/2000/svg" xmlns:xlink="http://www.w3.org/1999/xlink" x="0px" y="0px"
	 viewBox="0 0 540.1 780.1" style="enable-background:new 0 0 540.1 780.1;" xml:space="preserve">
<path d="M269.6,774.6c-144.5,0-262-117.6-262-262.1V266.7c0-144.5,117.5-262.1,262-262.1c144.5,0,262,117.6,262,262.1v245.7
	C531.6,657,414.1,774.6,269.6,774.6z M269.6,37.4c-126.4,0-229.2,102.9-229.2,229.4v245.7c0,126.5,102.8,229.4,229.2,229.4
	s229.2-102.9,229.2-229.4V266.7C498.8,140.3,396,37.4,269.6,37.4z"/>
<path d="M269.6,261.3c-9,0-16.4-7.3-16.4-16.4v-101c0-9.1,7.3-16.4,16.4-16.4c9,0,16.4,7.3,16.4,16.4v101
	C286,253.9,278.6,261.3,269.6,261.3z"/>
</svg>
